<svg xmlns="http://www.w3.org/2000/svg" viewBox="0 0 512 512" id="castle">
  <path fill="#767fad" d="M127.5 153.5v38h-30v-38h-30v38h-30v-38h-30v86h150v-86h-30z" class="color8b8893 svgShape"></path>
  <path fill="#767881" d="M369.5 239.5h120v265h-120zM22.5 239.5h120v265h-120z" class="color787681 svgShape"></path>
  <path fill="#56575c" d="M369.5 239.5h120v15h-120zM22.5 239.5h120v15h-120z" class="color57565c svgShape"></path>
  <path fill="#767fad" d="M474.5 153.5v38h-30v-38h-30v38h-30v-38h-30v86h150v-86h-30z" class="color8b8893 svgShape"></path>
  <path fill="#767881" d="M489.5 153.5v51a20 20 0 0 1-20 20h-115v15h150v-86zm-347 0v51a20 20 0 0 1-20 20H7.5v15h150v-86z" class="color787681 svgShape"></path>
  <path fill="#304feb" d="M325.75 50.5h-73.5v-43h73.5l-15 21.5 15 21.5z" class="coloreb304a svgShape"></path>
  <path fill="#2242e4" d="M325.75 7.5h-18.82l-7.56 10.84a9 9 0 0 0 0 10.36l4.41 6.3a6.35 6.35 0 0 1-5.21 10h-46.32v5.5h73.5l-15-21.5Z" class="colore4222e svgShape"></path>
  <path fill="#767fad" d="M142.5 284h227v220.5h-227z" class="color8b8893 svgShape"></path>
  <path fill="#4260f9" d="M319.5 417v87.5h-127V417a63.5 63.5 0 1 1 127 0Z" class="colorf9a242 svgShape"></path>
  <path fill="#3151f6" d="M263.5 353.94a64.14 64.14 0 0 0-15 0 63.51 63.51 0 0 1 56 63.06v87.5h15V417a63.51 63.51 0 0 0-56-63.06Z" class="colorf69531 svgShape"></path>
  <path fill="#dadadc" d="M190 144.5h132V284H190z" class="colordadadc svgShape"></path>
  <path fill="#c5c6cc" d="M307 144.5V249a20 20 0 0 1-20 20h-97v15h132V144.5ZM177.41 144.5 256 85.91l78.59 58.59H177.41z" class="colorc8c5cc svgShape"></path>
  <path fill="#adaeb3" d="m256 85.91-7.5 5.59 71.09 53h15L256 85.91z" class="coloraeadb3 svgShape"></path>
  <path fill="#dadadc" d="M429.5 414.5a33 33 0 0 1 33 33v57h-66v-57a33 33 0 0 1 33-33Z" class="colordadadc svgShape"></path>
  <path fill="#c5c6cc" d="M429.5 414.5a33.1 33.1 0 0 0-7.5.87 33 33 0 0 1 25.5 32.13v57h15v-57a33 33 0 0 0-33-33Z" class="colorc8c5cc svgShape"></path>
  <path fill="#dadadc" d="M429.5 265.5a33 33 0 0 1 33 33v57h-66v-57a33 33 0 0 1 33-33Z" class="colordadadc svgShape"></path>
  <path fill="#c5c6cc" d="M429.5 265.5a33.1 33.1 0 0 0-7.5.87 33 33 0 0 1 25.5 32.13v57h15v-57a33 33 0 0 0-33-33Z" class="colorc8c5cc svgShape"></path>
  <path fill="#dadadc" d="M82.5 414.5a33 33 0 0 1 33 33v57h-66v-57a33 33 0 0 1 33-33Z" class="colordadadc svgShape"></path>
  <path fill="#c5c6cc" d="M82.5 414.5a33.1 33.1 0 0 0-7.5.87 33 33 0 0 1 25.5 32.13v57h15v-57a33 33 0 0 0-33-33Z" class="colorc8c5cc svgShape"></path>
  <path fill="#dadadc" d="M82.5 265.5a33 33 0 0 1 33 33v57h-66v-57a33 33 0 0 1 33-33Z" class="colordadadc svgShape"></path>
  <path fill="#c5c6cc" d="M82.5 265.5a33.1 33.1 0 0 0-7.5.87 33 33 0 0 1 25.5 32.13v57h15v-57a33 33 0 0 0-33-33Z" class="colorc8c5cc svgShape"></path>
  <path fill="#dadadc" d="M462.5 392.5h-66a7.5 7.5 0 0 1 0-15h66a7.5 7.5 0 0 1 0 15zm-347 0h-66a7.5 7.5 0 0 1 0-15h66a7.5 7.5 0 0 1 0 15z" class="colordadadc svgShape"></path>
  <path fill="#56575c" d="M142.5 284h227v33.5h-227z" class="color57565c svgShape"></path>
  <path fill="#3b3c41" d="M354.5 284h15v33.5h-15z" class="color3c3b41 svgShape"></path>
  <path fill="#56575c" d="M354.5 317.5h15v187h-15z" class="color57565c svgShape"></path>
  <path fill="#3b3c41" d="M142.5 284h15v33.5h-15z" class="color3c3b41 svgShape"></path>
  <path fill="#56575c" d="M142.5 317.5h15v187h-15z" class="color57565c svgShape"></path>
  <path fill="#304feb" d="m318.83 211.33-13-13a3 3 0 0 0-2.12-.88H275a3 3 0 0 1-3-3v-27.87a3 3 0 0 0-.88-2.12l-13-13a3 3 0 0 0-4.24 0l-13 13a3 3 0 0 0-.88 2.12v27.83a3 3 0 0 1-3 3h-28.67a3 3 0 0 0-2.12.88l-13 13a3 3 0 0 0 0 4.24l13 13a3 3 0 0 0 2.12.88H237a3 3 0 0 1 3 3v29.44a3 3 0 0 0 .88 2.12l13 13a3 3 0 0 0 4.24 0l13-13a3 3 0 0 0 .88-2.12v-29.37a3 3 0 0 1 3-3h28.63a3 3 0 0 0 2.12-.88l13-13a3 3 0 0 0 .08-4.27Z" class="coloreb304a svgShape"></path>
  <path fill="#2242e4" d="m318.83 211.33-13-13a3 3 0 0 0-2.12-.88H275a3 3 0 0 1-3-3v-27.87a3 3 0 0 0-.88-2.12l-13-13a3 3 0 0 0-4.24 0L242.4 162.9a3 3 0 0 1 .72.52l13 13a3 3 0 0 1 .88 2.12v24.14a6.68 6.68 0 0 0 6.68 6.69h24.95a3 3 0 0 1 2.12.88l13 13a3 3 0 0 1 0 4.24l-1.91 1.91h1.75a3 3 0 0 0 2.12-.88l13-13a3 3 0 0 0 .12-4.19Z" class="colore4222e svgShape"></path>
  <path d="M504.5 146h-30a7.5 7.5 0 0 0-7.5 7.5V184h-15v-30.5a7.5 7.5 0 0 0-7.5-7.5h-30a7.5 7.5 0 0 0-7.5 7.5V184h-15v-30.5a7.5 7.5 0 0 0-7.5-7.5h-30a7.5 7.5 0 0 0-7.5 7.5v86a7.5 7.5 0 0 0 7.5 7.5h7.5v29.5h-32.5V152h5.09a7.5 7.5 0 0 0 4.48-13.51L263.5 82.15V58H322a7.5 7.5 0 0 0 6.15-11.79l-12-17.21 12-17.21A7.5 7.5 0 0 0 322 0h-66a7.5 7.5 0 0 0-7.5 7.5v74.65l-75.57 56.34a7.5 7.5 0 0 0 4.48 13.51h5.09v124.5H150V247h7.5a7.5 7.5 0 0 0 7.5-7.5v-86a7.5 7.5 0 0 0-7.5-7.5h-30a7.5 7.5 0 0 0-7.5 7.5V184h-15v-30.5a7.5 7.5 0 0 0-7.5-7.5h-30a7.5 7.5 0 0 0-7.5 7.5V184H45v-30.5a7.5 7.5 0 0 0-7.5-7.5h-30a7.5 7.5 0 0 0-7.5 7.5v86a7.5 7.5 0 0 0 7.5 7.5H15v257.5a7.5 7.5 0 0 0 7.5 7.5h467a7.5 7.5 0 0 0 7.5-7.5V247h7.5a7.5 7.5 0 0 0 7.5-7.5v-86a7.5 7.5 0 0 0-7.5-7.5Zm-241-131h44.12l-6.77 9.71a7.49 7.49 0 0 0 0 8.58l6.77 9.71H263.5ZM240 222h-29.8l-8.54-8.53 8.54-8.54H240a7.5 7.5 0 0 0 7.5-7.5v-29l8.54-8.54 8.54 8.54v29a7.5 7.5 0 0 0 7.5 7.5h29.72l8.54 8.54-8.54 8.53H272a7.5 7.5 0 0 0-7.5 7.5v30.57l-8.5 8.52-8.54-8.54v-30.57A7.5 7.5 0 0 0 240 222Zm37.38 46.48a7.47 7.47 0 0 0 2.2-5.3V237h25.37a7.5 7.5 0 0 0 5.3-2.19l4.29-4.29v46h-45.23Zm32.87-76.35a7.47 7.47 0 0 0-5.3-2.2h-25.41v-24.59a7.47 7.47 0 0 0-2.2-5.3l-8-8h45.16v44.39ZM256 95.26 312 137H200ZM197.5 152h45.19l-8 8a7.47 7.47 0 0 0-2.2 5.3v24.57h-25.4a7.47 7.47 0 0 0-5.3 2.2l-4.29 4.28Zm0 78.5 4.29 4.29a7.5 7.5 0 0 0 5.3 2.19h25.37v26.18a7.47 7.47 0 0 0 2.2 5.3l8 8H197.5ZM15 232v-71h15v30.5a7.5 7.5 0 0 0 7.5 7.5h30a7.5 7.5 0 0 0 7.5-7.5V161h15v30.5a7.5 7.5 0 0 0 7.5 7.5h30a7.5 7.5 0 0 0 7.5-7.5V161h15v71Zm93 265H57v-49.5a25.5 25.5 0 0 1 51 0Zm27 0h-12v-49.5a40.5 40.5 0 0 0-81 0V497H30V247h105Zm113.5 0H200v-80a56.08 56.08 0 0 1 48.5-55.48Zm63.5 0h-48.5V361.52A56.08 56.08 0 0 1 312 417Zm50 0h-35v-80a71 71 0 0 0-142 0v80h-35V325h212Zm0-187H150v-18.5h212Zm93 187h-51v-49.5a25.5 25.5 0 0 1 51 0Zm27 0h-12v-49.5a40.5 40.5 0 0 0-81 0V497h-12V247h105Zm15-265H362v-71h15v30.5a7.5 7.5 0 0 0 7.5 7.5h30a7.5 7.5 0 0 0 7.5-7.5V161h15v30.5a7.5 7.5 0 0 0 7.5 7.5h30a7.5 7.5 0 0 0 7.5-7.5V161h15ZM396.5 363h66a7.5 7.5 0 0 0 7.5-7.5v-57a40.5 40.5 0 0 0-81 0v57a7.5 7.5 0 0 0 7.5 7.5Zm7.5-64.5a25.5 25.5 0 0 1 51 0V348h-51Zm-7.5 94h66a7.5 7.5 0 0 0 0-15h-66a7.5 7.5 0 0 0 0 15Zm-347 0h66a7.5 7.5 0 0 0 0-15h-66a7.5 7.5 0 0 0 0 15Zm0-29.5h66a7.5 7.5 0 0 0 7.5-7.5v-57a40.5 40.5 0 0 0-81 0v57a7.5 7.5 0 0 0 7.5 7.5Zm7.5-64.5a25.5 25.5 0 0 1 51 0V348H57Z" fill="#000000" class="color000000 svgShape"></path>
</svg>
