<svg xmlns="http://www.w3.org/2000/svg" viewBox="0 0 128 128" id="VideoGame">
  <circle cx="64" cy="40" r="2" fill="#767fad" class="color000000 svgShape"></circle>
  <path d="M122,58H74V54h30a6.00476,6.00476,0,0,0,6-6V6a6.00476,6.00476,0,0,0-6-6H24a6.00476,6.00476,0,0,0-6,6V48a6.00476,6.00476,0,0,0,6,6H54v4H6a6.00476,6.00476,0,0,0-6,6V80a6.00476,6.00476,0,0,0,6,6H8v2a6,6,0,0,0,12,0V86H61v4a3.99887,3.99887,0,0,0-4,4v4H48.25a15.002,15.002,0,1,0,0,30,15.31018,15.31018,0,0,0,12.63-6.6h6.24A15.31018,15.31018,0,0,0,79.75,128a15.002,15.002,0,1,0,0-30H69V94a3.99887,3.99887,0,0,0-4-4V86h43v2a6,6,0,0,0,12,0V86h2a6.00476,6.00476,0,0,0,6-6V64A6.00476,6.00476,0,0,0,122,58ZM52,115H50v2a2,2,0,0,1-4,0v-2H44a2,2,0,0,1,0-4h2v-2a2,2,0,0,1,4,0v2h2a2,2,0,0,1,0,4Zm30,3.07a2.00112,2.00112,0,1,1,0-2.83A2.00388,2.00388,0,0,1,82,118.07Zm3.65-6.48a1.994,1.994,0,1,1-2.82,0A1.974,1.974,0,0,1,85.65,111.59Zm-6.48-3.66a2.00112,2.00112,0,1,1,0,2.83A2.00377,2.00377,0,0,1,79.17,107.93Zm-3.66,3.66a1.99759,1.99759,0,1,1,0,2.82A1.986,1.986,0,0,1,75.51,111.59ZM84,28H76a2,2,0,0,1,0-4h8a2,2,0,0,1,0,4ZM60,24h8a2,2,0,0,1,0,4H60a2,2,0,0,1,0-4Zm-8-4a2,2,0,0,1,0-4h8a2,2,0,0,1,0,4Zm16,0a2,2,0,0,1,0-4h8a2,2,0,0,1,0,4Zm14-2a2.0001,2.0001,0,0,1,2-2h8a2,2,0,0,1,0,4H84A2.0001,2.0001,0,0,1,82,18Zm18,10H92a2,2,0,0,1,0-4h8a2,2,0,0,1,0,4ZM92,8h8a2,2,0,0,1,0,4H92a2,2,0,0,1,0-4ZM76,8h8a2,2,0,0,1,0,4H76a2,2,0,0,1,0-4ZM60,8h8a2,2,0,0,1,0,4H60a2,2,0,0,1,0-4ZM44,8h8a2,2,0,0,1,0,4H44a2,2,0,0,1,0-4Zm1,10a2.0001,2.0001,0,0,1-2,2H35a2,2,0,0,1,0-4h8A2.0001,2.0001,0,0,1,45,18ZM28,8h8a2,2,0,0,1,0,4H28a2,2,0,0,1,0-4Zm8,20H28a2,2,0,0,1,0-4h8a2,2,0,0,1,0,4Zm6-2a2.0001,2.0001,0,0,1,2-2h8a2,2,0,0,1,0,4H44A2.0001,2.0001,0,0,1,42,26Zm8,20a2,2,0,0,1,0-4h8.35A6,6,0,1,1,69.65,42H78a2,2,0,0,1,0,4Zm20,8v4H58V54ZM16,88a2,2,0,0,1-4,0V86h4Zm8-14H20a2,2,0,0,1,0-4h4a2,2,0,0,1,0,4ZM61,94h4v4H61Zm6,16a2.00591,2.00591,0,0,1-2,2H63a2,2,0,0,1,0-4h2A2.00587,2.00587,0,0,1,67,110ZM94,82H34V74H94Zm0-12H34V62H94Zm14,4h-4a2,2,0,0,1,0-4h4a2,2,0,0,1,0,4Zm8,14a2,2,0,0,1-4,0V86h4Z" fill="#767fad" class="color000000 svgShape"></path>
</svg>
